<svg width="11" height="11" viewBox="0 0 11 11" fill="none" xmlns="http://www.w3.org/2000/svg">
<path d="M8.96592 10.9807H10.7546C10.8195 10.9807 10.8816 10.955 10.9275 10.9092C10.9733 10.8633 10.9991 10.8012 10.9991 10.7364L11 6.95713C11 4.98184 10.5744 3.46353 8.26601 3.46353C7.38852 3.4309 6.56101 3.88324 6.11447 4.63858C6.11229 4.64225 6.10897 4.6451 6.10501 4.6467C6.10105 4.64831 6.09668 4.64857 6.09256 4.64746C6.08844 4.64634 6.08479 4.64391 6.08219 4.64053C6.07958 4.63715 6.07815 4.63301 6.07811 4.62874V3.89033C6.07811 3.8255 6.05236 3.76333 6.00651 3.71749C5.96067 3.67164 5.8985 3.64589 5.83367 3.64589H4.13618C4.07135 3.64589 4.00918 3.67164 3.96334 3.71749C3.91749 3.76333 3.89174 3.8255 3.89174 3.89033V10.736C3.89174 10.8008 3.91749 10.863 3.96334 10.9088C4.00918 10.9547 4.07135 10.9804 4.13618 10.9804H5.92478C5.98961 10.9804 6.05179 10.9547 6.09763 10.9088C6.14347 10.863 6.16923 10.8008 6.16923 10.736V7.35209C6.16923 6.39528 6.35073 5.46865 7.53696 5.46865C8.70632 5.46865 8.72147 6.56352 8.72147 7.41406V10.7363C8.72147 10.8011 8.74723 10.8633 8.79307 10.9092C8.83891 10.955 8.90109 10.9807 8.96592 10.9807ZM0 1.32171C0 2.04673 0.596872 2.6433 1.32196 2.6433C2.04686 2.64324 2.64336 2.04631 2.64336 1.32141C2.64324 0.596506 2.04667 0 1.32171 0C0.596567 0 0 0.596689 0 1.32171ZM0.425272 10.9807H2.21626C2.28109 10.9807 2.34326 10.955 2.3891 10.9092C2.43495 10.8633 2.4607 10.8011 2.4607 10.7363V3.89033C2.4607 3.8255 2.43495 3.76333 2.3891 3.71749C2.34326 3.67164 2.28109 3.64589 2.21626 3.64589H0.425272C0.360442 3.64589 0.298266 3.67164 0.252424 3.71749C0.206582 3.76333 0.180828 3.8255 0.180828 3.89033V10.7363C0.180828 10.8011 0.206582 10.8633 0.252424 10.9092C0.298266 10.955 0.360442 10.9807 0.425272 10.9807Z" fill="white"/>
</svg>
