<svg width="12" height="12" viewBox="0 0 12 12" fill="none" xmlns="http://www.w3.org/2000/svg">
<path d="M6.00054 0C4.37106 0 4.16652 0.00714 3.52656 0.03624C2.8878 0.06552 2.45178 0.16662 2.0703 0.315C1.67562 0.46824 1.34088 0.67326 1.0074 1.00686C0.67362 1.3404 0.4686 1.67514 0.31488 2.06964C0.16608 2.45124 0.06486 2.88744 0.03612 3.5259C0.00749996 4.16592 0 4.37052 0 6.00006C0 7.6296 0.00720001 7.83348 0.03624 8.47344C0.06564 9.1122 0.16674 9.54822 0.315 9.9297C0.46836 10.3244 0.67338 10.6591 1.00698 10.9926C1.3404 11.3264 1.67514 11.5319 2.06952 11.6851C2.4513 11.8335 2.88738 11.9346 3.52602 11.9639C4.16604 11.993 4.3704 12.0001 5.99982 12.0001C7.62948 12.0001 7.83336 11.993 8.47332 11.9639C9.11208 11.9346 9.54858 11.8335 9.93036 11.6851C10.3249 11.5319 10.6591 11.3264 10.9925 10.9926C11.3263 10.6591 11.5312 10.3244 11.685 9.92988C11.8325 9.54822 11.9338 9.11208 11.9638 8.47356C11.9925 7.8336 12 7.6296 12 6.00006C12 4.37052 11.9925 4.16604 11.9638 3.52602C11.9338 2.88726 11.8325 2.4513 11.685 2.06982C11.5312 1.67514 11.3263 1.3404 10.9925 1.00686C10.6588 0.67314 10.325 0.46812 9.93 0.31506C9.5475 0.16662 9.11124 0.06546 8.47248 0.03624C7.83246 0.00714 7.6287 0 5.99868 0H6.00054ZM5.46228 1.08126C5.62206 1.08102 5.80032 1.08126 6.00054 1.08126C7.6026 1.08126 7.79244 1.08702 8.42508 1.11576C9.01008 1.14252 9.3276 1.24026 9.5391 1.3224C9.81912 1.43112 10.0187 1.56114 10.2286 1.7712C10.4386 1.9812 10.5686 2.18118 10.6776 2.4612C10.7597 2.6724 10.8576 2.98992 10.8842 3.57492C10.913 4.20744 10.9192 4.3974 10.9192 5.99868C10.9192 7.59996 10.913 7.78998 10.8842 8.42244C10.8575 9.00744 10.7597 9.32496 10.6776 9.53622C10.5689 9.81624 10.4386 10.0156 10.2286 10.2255C10.0186 10.4355 9.81924 10.5655 9.5391 10.6742C9.32784 10.7567 9.01008 10.8542 8.42508 10.881C7.79256 10.9097 7.6026 10.916 6.00054 10.916C4.39842 10.916 4.20852 10.9097 3.57606 10.881C2.99106 10.854 2.67354 10.7563 2.46186 10.6741C2.1819 10.5653 1.98186 10.4354 1.77186 10.2254C1.56186 10.0154 1.4319 9.81588 1.32288 9.53574C1.24074 9.32448 1.14288 9.00696 1.11624 8.42196C1.0875 7.78944 1.08174 7.59948 1.08174 5.99718C1.08174 4.39488 1.0875 4.20594 1.11624 3.57342C1.143 2.98842 1.24074 2.6709 1.32288 2.4594C1.43166 2.17938 1.56186 1.9794 1.77192 1.7694C1.98198 1.5594 2.1819 1.42938 2.46192 1.32042C2.67342 1.23792 2.99106 1.14042 3.57606 1.11354C4.12956 1.08852 4.34406 1.08102 5.46228 1.07976V1.08126ZM9.20334 2.0775C8.80584 2.0775 8.48334 2.3997 8.48334 2.79726C8.48334 3.19476 8.80584 3.51726 9.20334 3.51726C9.60084 3.51726 9.92334 3.19476 9.92334 2.79726C9.92334 2.39976 9.60084 2.07726 9.20334 2.07726V2.0775ZM6.00054 2.91876C4.29894 2.91876 2.9193 4.2984 2.9193 6.00006C2.9193 7.70172 4.29894 9.0807 6.00054 9.0807C7.7022 9.0807 9.08136 7.70172 9.08136 6.00006C9.08136 4.29846 7.70208 2.91876 6.00042 2.91876H6.00054ZM6.00054 4.00002C7.10508 4.00002 8.00058 4.8954 8.00058 6.00006C8.00058 7.1046 7.10508 8.0001 6.00054 8.0001C4.896 8.0001 4.00056 7.1046 4.00056 6.00006C4.00056 4.8954 4.89594 4.00002 6.00054 4.00002Z" fill="white"/>
</svg>
