<svg width="1423" height="624" viewBox="0 0 1423 624" fill="none" xmlns="http://www.w3.org/2000/svg">
<path d="M458.366 53.8912L461.922 50.3749L461.812 50.2644L461.697 50.1609L458.366 53.8912ZM725.33 612.886L724.531 607.95L724.053 608.027L723.598 608.195L725.33 612.886ZM933.792 430.071L938.713 430.963L938.879 430.045L938.703 429.128L933.792 430.071ZM987.823 159.864L985.778 155.301L984.944 155.674L984.297 156.318L987.823 159.864ZM1185.03 173.425L1188.64 169.969L1188.44 169.759L1188.22 169.575L1185.03 173.425ZM1272.38 366.286L1267.47 367.277L1267.69 368.359L1268.35 369.248L1272.38 366.286ZM1422.31 366.286L1365.56 376.952L1403.17 420.763L1422.31 366.286ZM1.52945 366.286L-3.56471e-05 371.046C36.6711 382.828 65.486 376.534 88.3284 358.524C110.803 340.803 127.001 312.128 139.811 280.086C152.654 247.963 162.361 211.73 171.435 178.396C180.573 144.831 189.012 114.453 199.331 93.2447L194.834 91.0569L190.338 88.8692C179.52 111.104 170.84 142.511 161.786 175.769C152.668 209.26 143.111 244.891 130.525 276.373C117.906 307.936 102.511 334.605 82.1362 350.67C62.1296 366.445 36.8397 372.377 3.05893 361.525L1.52945 366.286ZM194.834 91.0569L199.331 93.2447C240.11 9.43025 361.623 -25.7717 455.036 57.6215L458.366 53.8912L461.697 50.1609C363.485 -37.5158 234.108 -1.09224 190.338 88.8692L194.834 91.0569ZM458.366 53.8912L454.811 57.4076C501.497 104.611 515.758 160.95 518.032 219.884C519.171 249.397 517.298 279.45 515.013 309.281C512.736 339.017 510.038 368.633 509.617 396.848L514.617 396.922L519.617 396.997C520.032 369.18 522.691 340.004 524.985 310.045C527.273 280.18 529.188 249.632 528.026 219.499C525.697 159.139 510.997 99.994 461.922 50.3749L458.366 53.8912ZM514.617 396.922L509.617 396.848C508.76 454.374 536.84 518.86 577.789 564.251C618.629 609.523 673.765 637.256 727.062 617.577L725.33 612.886L723.598 608.195C675.973 625.779 624.917 601.562 585.214 557.552C545.619 513.661 518.804 451.533 519.617 396.997L514.617 396.922ZM725.33 612.886L726.13 617.822C791.934 607.162 839.166 595.075 872.899 567.996C906.877 540.72 926.387 498.92 938.713 430.963L933.792 430.071L928.872 429.178C916.715 496.205 897.846 535.145 866.638 560.197C835.186 585.445 790.429 597.274 724.531 607.95L725.33 612.886ZM933.792 430.071L938.703 429.128C926.676 366.436 921.313 318.572 928.155 277.115C934.951 235.936 953.871 200.674 991.348 163.41L987.823 159.864L984.297 156.318C945.62 194.775 925.486 231.867 918.287 275.487C911.134 318.829 916.832 368.208 928.882 431.013L933.792 430.071ZM987.823 159.864L989.867 164.427C1029.55 146.646 1058.82 134.743 1087.47 134.66C1115.74 134.579 1144.19 146.063 1181.84 177.274L1185.03 173.425L1188.22 169.575C1149.61 137.568 1118.96 124.569 1087.44 124.66C1056.31 124.749 1025.11 137.676 985.778 155.301L987.823 159.864ZM1185.03 173.425L1181.41 176.881C1203.85 200.342 1219.93 221.501 1233.11 249.841C1246.34 278.288 1256.74 314.189 1267.47 367.277L1272.38 366.286L1277.28 365.294C1266.49 311.937 1255.9 275.134 1242.18 245.625C1228.41 216.009 1211.58 193.96 1188.64 169.969L1185.03 173.425ZM1272.38 366.286L1268.35 369.248C1289.51 398.033 1308.48 414.719 1328.57 419.347C1348.97 424.045 1368.95 415.999 1391.13 399.622L1388.16 395.599L1385.19 391.576C1363.77 407.394 1346.89 413.302 1330.82 409.601C1314.44 405.829 1297.32 391.761 1276.4 363.323L1272.38 366.286Z" fill="white"/>
</svg>
